<svg width="196" height="196" viewBox="0 0 196 196" fill="none" xmlns="http://www.w3.org/2000/svg">
<path d="M147.326 110.658C143.896 114.006 141.936 118.824 142.426 123.969C143.161 132.789 151.246 139.241 160.066 139.241H175.583V148.959C175.583 165.864 161.781 179.666 144.876 179.666H51.1227C34.2177 179.666 20.416 165.864 20.416 148.959V93.9978C20.416 77.0928 34.2177 63.291 51.1227 63.291H144.876C161.781 63.291 175.583 77.0928 175.583 93.9978V105.758H159.086C154.513 105.758 150.348 107.554 147.326 110.658Z" stroke="#897FFF" stroke-width="13" stroke-linecap="round" stroke-linejoin="round"/>
<path d="M20.416 101.342V64.0206C20.416 54.3022 26.3777 45.6452 35.4427 42.2152L100.286 17.7152C110.413 13.8769 121.274 21.3904 121.274 32.2521V63.2853" stroke="#897FFF" stroke-width="13" stroke-linecap="round" stroke-linejoin="round"/>
<path d="M184.23 114.082V130.905C184.23 135.397 180.636 139.072 176.063 139.235H160.056C151.236 139.235 143.151 132.783 142.416 123.963C141.926 118.818 143.886 114 147.316 110.652C150.338 107.548 154.503 105.752 159.076 105.752H176.063C180.636 105.915 184.23 109.59 184.23 114.082Z" stroke="#897FFF" stroke-width="13" stroke-linecap="round" stroke-linejoin="round"/>
<path d="M57.166 98H114.333" stroke="#897FFF" stroke-width="13" stroke-linecap="round" stroke-linejoin="round"/>
</svg>
